<?xml version="1.0" encoding="utf-8"?>
<!-- Generator: Adobe Illustrator 26.0.1, SVG Export Plug-In . SVG Version: 6.00 Build 0)  -->
<svg version="1.1" id="Layer_1" xmlns="http://www.w3.org/2000/svg" xmlns:xlink="http://www.w3.org/1999/xlink" x="0px" y="0px"
	 viewBox="0 0 1080 725" style="enable-background:new 0 0 1080 725;" xml:space="preserve">
<style type="text/css">
	.st0{fill:#EDEDED;}
	.st1{fill:none;stroke:url(#SVGID_1_);stroke-width:2.9081;stroke-miterlimit:10;}
	.st2{fill:url(#SVGID_00000067937748446984840740000004446870359470465464_);}
	.st3{fill:#FE9752;}
	.st4{opacity:0.5;fill:url(#SVGID_00000108998355518189465910000001987961176013431462_);}
	.st5{fill:#A8123E;}
	.st6{opacity:0.5;fill:url(#SVGID_00000121254530732904470940000009460692173593437605_);}
	.st7{opacity:0.5;fill:url(#SVGID_00000026850189068940531940000013997170876599642028_);}
</style>
<g>
	<g>
		<path class="st0" d="M957.4,266.31c-1.44-5.31-5.75-7.77-7.17-8.57c-21.81-12.42-39.66-22.75-56.16-32.52
			c-1.91-1.13-4.87-2.64-8.47-2.64c-5.13,0-9.33,2.79-12.46,8.29c-17.34,30.44-35.12,61.32-52.31,91.18l-8.35,14.51
			c-3.45,6-7.8,8.55-14.62,8.55c-20.03-0.05-40.05-0.07-60.07-0.07c-20.81,0-41.61,0.02-62.47,0.06c-6.51,0-10.74-2.31-14.14-7.73
			l-29.4-46.83c-12.04-19.18-24.09-38.36-36.13-57.55l7.68-11.91c0.64-0.99,1.17-1.81,1.69-2.63l16.07-25.58
			c16.17-25.73,32.34-51.46,48.46-77.22c3.71-5.93,8.06-8.35,15.13-8.35c15.43,0.06,30.86,0.07,46.3,0.07l17.9,0
			c12.6,0,25.2,0.01,37.93,0.04c0.01,0,0.02,0,0.03,0c1.92,0,6.94-0.02,10.81-3.92c3.92-3.95,3.88-8.98,3.87-10.63
			c-0.19-24.09-0.12-47.84-0.03-65.83c0.01-1.85,0.03-6.78-3.85-10.68c-2.58-2.59-6.09-3.9-10.5-3.9
			c-8.13,0.02-16.26,0.03-24.38,0.03l-47.55-0.03c-14.53,0-33.71,0.02-53.12,0.18c-25.42,0.21-45.93,11.28-59.34,31.99
			c-13.56,20.96-27.01,42.45-40.01,63.24c-6.71,10.73-13.43,21.46-20.18,32.17c-1.04,1.65-1.71,3.36-2.09,5.07
			c-20.44-32.55-40.86-65.11-61.31-97.65c-14.21-22.62-35.81-34.67-62.45-34.83c-16.86-0.1-33.72-0.13-50.58-0.13L325.2,12.5
			c-10.46,0-20.93-0.01-31.49-0.04c-1.75,0-7.09,0-11.12,4.06c-4.04,4.07-3.99,9.4-3.98,11.15c0.17,21.41,0.17,43.12,0,64.53
			c-0.01,1.76-0.06,7.1,3.97,11.16c3.99,4.02,9.25,4.05,11.16,4.05c0.02,0,0.03,0,0.05,0c8.24-0.03,16.48-0.04,24.72-0.04
			l32.64,0.02c12.64,0,27.63-0.02,42.99-0.17l0.3,0c7.84,0,12.63,2.76,17.07,9.85c24.28,38.79,48.61,77.55,72.94,116.31l-7.79,11.83
			c-0.72,1.09-1.34,2.01-1.93,2.95l-12.53,19.94c-14.43,22.97-28.86,45.94-43.26,68.93c-3.53,5.64-7.84,8.05-14.45,8.05
			c-19.74-0.04-39.49-0.05-59.23-0.05c-21.07,0-42.14,0.02-63.24,0.04c-6.67,0-10.94-2.48-14.28-8.29L206.2,229.7
			c-2.72-5.01-6.58-7.55-11.49-7.55c-2.52,0-4.98,0.73-7.52,2.24c-19.58,11.58-39.99,23.28-58,33.61c-3.6,2.06-5.89,4.85-6.82,8.28
			c-0.92,3.43-0.35,6.98,1.71,10.54c8.05,13.94,16.06,27.91,24.08,41.87c16.31,28.42,33.17,57.82,50.12,86.55
			c12.97,21.99,34.34,34.23,60.17,34.45c26.5,0.22,53.47,0.33,82.45,0.33c27.25,0,55.56-0.1,86.57-0.3
			c24.11-0.16,44.5-10.98,57.42-30.47c12.49-18.85,24.62-38.31,36.35-57.13c5.45-8.75,10.91-17.49,16.41-26.21
			c0.95-1.5,1.57-3.05,1.94-4.62c17.09,27.25,34.19,54.48,51.25,81.75c15.3,24.45,37.59,36.85,66.24,36.85h0.54
			c10.31-0.05,20.62-0.07,30.94-0.07c8.07,0,40.38,0.04,48.46,0.04c8.2,0,16.4,0.01,24.6,0.03c8.21,0.02,16.42,0.03,24.64,0.03
			c10.68,0,21.36-0.02,32.04-0.1c28.69-0.21,51.33-13.31,65.5-37.89c9.63-16.71,19.25-33.43,28.86-50.15
			c14.24-24.77,28.49-49.54,42.78-74.28C956.37,275.88,958.84,271.61,957.4,266.31z"/>
		<linearGradient id="SVGID_1_" gradientUnits="userSpaceOnUse" x1="539.8884" y1="441.4703" x2="539.8884" y2="10.989">
			<stop  offset="0" style="stop-color:#FFFFFF"/>
			<stop  offset="0.0532" style="stop-color:#FBFBFB"/>
			<stop  offset="0.1014" style="stop-color:#F0F0F0"/>
			<stop  offset="0.1475" style="stop-color:#DEDEDE"/>
			<stop  offset="0.1556" style="stop-color:#DADADA"/>
			<stop  offset="0.1565" style="stop-color:#DADADA"/>
			<stop  offset="0.2067" style="stop-color:#DADADA"/>
			<stop  offset="0.4903" style="stop-color:#EDEDED"/>
			<stop  offset="0.6129" style="stop-color:#E9E9E9"/>
			<stop  offset="0.7241" style="stop-color:#DEDEDE"/>
			<stop  offset="0.8305" style="stop-color:#CCCCCC"/>
			<stop  offset="0.8579" style="stop-color:#C6C6C6"/>
			<stop  offset="1" style="stop-color:#FFFFFF"/>
		</linearGradient>
		<path class="st1" d="M957.4,266.31c-1.44-5.31-5.75-7.77-7.17-8.57c-21.81-12.42-39.66-22.75-56.16-32.52
			c-1.91-1.13-4.87-2.64-8.47-2.64c-5.13,0-9.33,2.79-12.46,8.29c-17.34,30.44-35.12,61.32-52.31,91.18l-8.35,14.51
			c-3.45,6-7.8,8.55-14.62,8.55c-20.03-0.05-40.05-0.07-60.07-0.07c-20.81,0-41.61,0.02-62.47,0.06c-6.51,0-10.74-2.31-14.14-7.73
			l-29.39-46.83c-12.04-19.18-24.09-38.36-36.13-57.55l7.68-11.91c0.64-0.99,1.17-1.81,1.69-2.63l16.07-25.58
			c16.17-25.73,32.34-51.46,48.46-77.22c3.71-5.93,8.06-8.35,15.13-8.35c15.43,0.06,30.86,0.07,46.3,0.07l17.9,0
			c12.6,0,25.2,0.01,37.93,0.04c0.01,0,0.02,0,0.03,0c1.92,0,6.94-0.02,10.81-3.92c3.92-3.95,3.88-8.98,3.87-10.63
			c-0.19-24.09-0.12-47.84-0.03-65.83c0.01-1.85,0.03-6.78-3.85-10.68c-2.58-2.59-6.09-3.9-10.5-3.9
			c-8.13,0.02-16.26,0.03-24.38,0.03l-47.55-0.03c-14.53,0-33.71,0.02-53.12,0.18c-25.42,0.21-45.93,11.28-59.34,31.99
			c-13.56,20.96-27.01,42.45-40.01,63.24c-6.71,10.73-13.43,21.46-20.18,32.17c-1.04,1.65-1.71,3.36-2.09,5.07
			c-20.44-32.55-40.86-65.11-61.31-97.65c-14.21-22.62-35.81-34.67-62.45-34.83c-16.86-0.1-33.72-0.13-50.58-0.13L325.2,12.5
			c-10.46,0-20.93-0.01-31.49-0.04c-1.75,0-7.09,0-11.12,4.06c-4.04,4.07-3.99,9.4-3.98,11.15c0.17,21.41,0.17,43.12,0,64.53
			c-0.01,1.76-0.06,7.1,3.97,11.16c3.99,4.02,9.25,4.05,11.16,4.05c0.02,0,0.03,0,0.05,0c8.24-0.03,16.48-0.04,24.72-0.04
			l32.64,0.02c12.64,0,27.63-0.02,42.99-0.16l0.3,0c7.84,0,12.63,2.76,17.07,9.85c24.28,38.79,48.61,77.55,72.94,116.31l-7.79,11.83
			c-0.73,1.09-1.34,2.01-1.93,2.95l-12.53,19.94c-14.43,22.97-28.86,45.94-43.26,68.93c-3.53,5.64-7.84,8.05-14.45,8.05
			c-19.74-0.04-39.49-0.05-59.23-0.05c-21.07,0-42.14,0.02-63.24,0.04c-6.67,0-10.94-2.48-14.28-8.29L206.2,229.7
			c-2.72-5.01-6.58-7.55-11.49-7.55c-2.52,0-4.98,0.73-7.52,2.24c-19.58,11.58-39.99,23.28-58,33.61c-3.6,2.06-5.89,4.85-6.82,8.28
			c-0.92,3.43-0.35,6.98,1.71,10.54c8.05,13.94,16.06,27.91,24.08,41.87c16.31,28.42,33.17,57.82,50.12,86.54
			c12.97,21.99,34.34,34.23,60.17,34.45c26.5,0.22,53.47,0.33,82.45,0.33c27.25,0,55.56-0.1,86.57-0.3
			c24.11-0.16,44.5-10.98,57.42-30.47c12.49-18.85,24.62-38.31,36.35-57.13c5.45-8.75,10.91-17.49,16.41-26.21
			c0.95-1.5,1.57-3.05,1.94-4.62c17.09,27.25,34.19,54.48,51.25,81.75c15.3,24.45,37.59,36.85,66.24,36.85h0.54
			c10.31-0.05,20.62-0.07,30.94-0.07c8.07,0,40.38,0.04,48.46,0.04c8.2,0,16.4,0.01,24.6,0.03c8.21,0.02,16.42,0.03,24.64,0.03
			c10.68,0,21.36-0.02,32.04-0.1c28.69-0.21,51.33-13.31,65.5-37.89c9.63-16.71,19.25-33.43,28.86-50.15
			c14.24-24.77,28.49-49.54,42.78-74.28C956.37,275.88,958.84,271.61,957.4,266.31z"/>
		<g>
			
				<linearGradient id="SVGID_00000131368170046552278870000005810373509059644078_" gradientUnits="userSpaceOnUse" x1="374.3807" y1="226.229" x2="721.5578" y2="226.229">
				<stop  offset="0.1621" style="stop-color:#FFFFFF;stop-opacity:0"/>
				<stop  offset="0.4885" style="stop-color:#DADADA"/>
				<stop  offset="0.7904" style="stop-color:#FFFFFF;stop-opacity:0"/>
			</linearGradient>
			<path style="fill:url(#SVGID_00000131368170046552278870000005810373509059644078_);" d="M340.9,452.21
				c-29.2,0-56.21-0.11-82.55-0.33c-30.28-0.26-55.34-14.62-70.58-40.44c-17.01-28.83-33.79-58.08-50.02-86.37
				c-8.18-14.26-16.19-28.21-24.23-42.15c-3.69-6.38-4.7-13.23-2.93-19.81c1.77-6.58,6.11-12.01,12.53-15.69l0.45-0.26
				c17.82-10.22,38.04-21.81,57.41-33.27c4.41-2.61,9.03-3.93,13.73-3.93c9.45,0,17.34,4.95,22.21,13.93l61.41,106.81
				c1.17,2.03,1.41,2.17,3.71,2.17c40.86-0.04,81.67-0.06,122.49,0.01c2.36,0,2.78-0.24,4.08-2.32c14.4-23,28.83-45.97,43.27-68.95
				l12.53-19.94c0.64-1.02,1.31-2.03,2.1-3.23l3.44-5.23c-23.06-36.74-45.93-73.2-68.77-109.68c-2.36-3.77-3.31-4.12-6.73-4.12
				c-15.59,0.15-30.62,0.17-43.29,0.17l-32.65-0.02c-8.21,0-16.44,0.01-24.67,0.04c-8.18,0-14.88-2.58-19.92-7.66
				c-5.05-5.09-7.58-11.77-7.51-19.85c0.17-21.35,0.17-42.99,0-64.34c-0.06-8.07,2.47-14.75,7.52-19.84
				c5.04-5.08,11.7-7.66,19.77-7.66C304.3,0.29,314.75,0.3,325.2,0.3l40.94-0.02c16.89,0,33.77,0.02,50.65,0.13
				c31.02,0.19,56.15,14.21,72.7,40.54c12.91,20.55,43.39,69.11,50.44,80.35c4.8-7.66,12.99-20.75,12.99-20.75
				c12.82-20.49,26.07-41.68,39.59-62.56C608.26,13.67,632.28,0.68,662,0.43c19.45-0.16,38.66-0.18,53.22-0.18l47.56,0.03
				c8.11,0,16.23-0.01,24.35-0.03c9.68,0,15.77,4.07,19.17,7.49c4.95,4.98,7.44,11.49,7.4,19.35c-0.09,17.82-0.16,41.39,0.03,65.67
				c0.06,7.8-2.42,14.3-7.4,19.31c-4.96,5-11.51,7.53-19.48,7.53c-12.77-0.03-25.36-0.04-37.95-0.04h-17.9
				c-15.45,0-30.9-0.01-46.35-0.07c-2.81,0-3.26,0.25-4.75,2.62c-14.74,23.56-29.53,47.1-44.32,70.63l-20.22,32.19
				c-0.43,0.68-3.84,5.97-5.24,8.15l61.4,97.81c1.08,1.73,1.33,2.01,3.81,2.01c40.88-0.07,81.72-0.09,122.56,0.01
				c2.2,0,2.66-0.07,4.02-2.44l8.84-15.37c17.03-29.58,34.62-60.14,51.78-90.27c5.31-9.32,13.5-14.45,23.06-14.45
				c7.32,0,12.84,3.26,14.66,4.33c16.65,9.86,34.44,20.16,56,32.43c6.72,3.84,11.07,9.21,12.91,15.98
				c1.83,6.77,0.77,13.66-3.16,20.48c-14.29,24.74-28.53,49.5-42.77,74.26l-28.87,50.16c-16.45,28.55-42.72,43.76-75.98,44
				c-10.71,0.07-21.42,0.1-32.12,0.1c-8.22,0-97.71-0.1-97.71-0.1c-10.29,0-20.58,0.02-30.87,0.07h-0.61
				c-32.67,0-59.16-14.72-76.58-42.57c-12.53-20.02-25.08-40.03-37.63-60.04l-2.81-4.48c-3.53,5.65-8.68,13.9-8.68,13.9
				c-11.69,18.75-23.77,38.13-36.33,57.09c-15.23,22.98-39.21,35.74-67.51,35.93C397,452.12,368.66,452.21,340.9,452.21z
				 M194.71,213.44c-4.07,0-8.09,1.16-11.95,3.45c-19.39,11.46-39.62,23.06-57.46,33.29l-0.45,0.26c-5.6,3.21-9.37,7.9-10.9,13.57
				c-1.52,5.67-0.63,11.6,2.58,17.16c8.05,13.94,16.06,27.9,24.24,42.16c16.23,28.28,33,57.53,50,86.34
				c14.59,24.73,38.59,38.48,67.6,38.73c26.34,0.22,53.33,0.33,82.53,0.33c27.75,0,56.09-0.1,86.62-0.3
				c27.11-0.18,50.05-12.38,64.62-34.37c12.53-18.91,24.6-38.28,36.28-57.01c0,0,6.83-10.95,10.15-16.26c0.64-1.01,2.31-1.02,2.95,0
				l4.29,6.83c12.55,20.01,25.1,40.01,37.63,60.04c16.76,26.78,42.22,40.94,73.63,40.94h0.6c10.29-0.05,20.58-0.07,30.88-0.07
				c0,0,89.48,0.1,97.7,0.1c10.7,0,21.39-0.02,32.09-0.1c31.95-0.23,57.19-14.84,72.99-42.26l28.87-50.15
				c14.24-24.77,28.48-49.53,42.78-74.27c3.45-5.99,4.4-11.98,2.82-17.82c-1.59-5.84-5.38-10.51-11.27-13.86
				c-21.58-12.28-39.38-22.59-56.03-32.45c-1.62-0.96-6.53-3.85-12.9-3.85c-8.25,0-15.37,4.51-20.03,12.7
				c-17.17,30.13-34.77,60.7-51.79,90.28l-8.84,15.37c-1.89,3.29-3.4,4.19-7.04,4.19c-40.85-0.1-81.67-0.09-122.56-0.01
				c-3.52,0-4.97-0.78-6.77-3.64l-61.99-98.75c-0.36-0.57-0.35-1.3,0.01-1.87c0,0,5.29-8.19,5.82-9.04l20.22-32.19
				c14.79-23.54,29.58-47.07,44.31-70.63c2.12-3.39,3.7-4.26,7.71-4.26c15.45,0.06,30.9,0.07,46.34,0.07h17.9
				c12.59,0,25.19,0.01,37.96,0.04c7,0,12.72-2.19,17-6.5c4.29-4.33,6.45-9.99,6.39-16.83c-0.19-24.29-0.12-47.88-0.03-65.71
				c0.04-6.9-2.11-12.58-6.38-16.88c-2.94-2.95-8.22-6.47-16.7-6.47c-8.12,0.02-16.24,0.03-24.35,0.03l-47.56-0.03
				c-14.55,0-33.75,0.02-53.19,0.18c-28.48,0.24-51.5,12.68-66.58,35.97c-13.5,20.86-26.75,42.04-39.56,62.52
				c0,0-10.14,16.21-14.47,23.1c-0.32,0.51-0.88,0.82-1.48,0.82l0,0c-0.6,0-1.16-0.31-1.48-0.82c0,0-37.27-59.38-51.92-82.7
				c-15.88-25.27-40-38.73-69.77-38.91c-16.88-0.11-33.75-0.13-50.63-0.13L325.2,3.79c-10.46,0-20.91-0.01-31.5-0.04
				c-7.11,0-12.93,2.23-17.3,6.64c-4.37,4.41-6.56,10.24-6.51,17.35c0.17,21.36,0.17,43.03,0,64.39c-0.05,7.12,2.13,12.96,6.5,17.37
				c4.36,4.4,10.23,6.63,17.44,6.63c8.22-0.04,16.45-0.04,24.67-0.04l32.65,0.02c12.66,0,27.68-0.02,43.28-0.17
				c4.5,0,6.64,0.87,9.7,5.76c23.04,36.8,46.11,73.57,69.19,110.33c0,0,0.19,0.3,0.19,0.3c0.36,0.58,0.35,1.31-0.02,1.88l-4.07,6.18
				c-0.78,1.17-1.43,2.15-2.06,3.15l-12.53,19.95c-14.44,22.97-28.87,45.95-43.27,68.95c-1.92,3.07-3.5,3.96-7.04,3.96
				c-40.83-0.08-81.64-0.05-122.49-0.01c-3.56,0-4.94-0.81-6.73-3.92l-61.43-106.84C209.62,217.74,202.82,213.44,194.71,213.44z"/>
		</g>
		<path class="st3" d="M737.03,429.29c-26.49,0-52.97-0.11-79.46,0.03c-25.27,0.14-44.3-10.36-57.77-31.89
			c-59.68-95.39-119.61-190.61-179.32-285.98c-6.26-9.99-14.44-14.92-26.43-14.81c-33.43,0.32-66.87,0.05-100.3,0.19
			c-3.61,0.02-4.6-0.94-4.57-4.56c0.17-21.56,0.17-43.13,0-64.69c-0.03-3.64,1.01-4.57,4.6-4.56c40.96,0.13,81.92-0.1,122.88,0.15
			c23.14,0.14,41.2,10.21,53.56,29.89c60.71,96.62,121.36,193.28,182.02,289.93c5.37,8.56,13.02,12.7,23.16,12.68
			c40.82-0.07,81.63-0.09,122.45,0.01c10.77,0.02,18.53-4.7,23.8-13.85c20.27-35.22,40.56-70.42,60.68-105.73
			c1.85-3.25,3.01-3.78,6.37-1.8c18.66,11.05,37.46,21.88,56.31,32.61c2.78,1.58,2.74,2.77,1.29,5.29
			c-23.93,41.45-47.75,82.97-71.64,124.44c-12.51,21.71-31.54,32.42-56.42,32.6C791.16,429.44,764.09,429.29,737.03,429.29z"/>
		
			<linearGradient id="SVGID_00000152943004620700771160000000671979993392232631_" gradientUnits="userSpaceOnUse" x1="437.2447" y1="320.4364" x2="437.2447" y2="11.5104">
			<stop  offset="0" style="stop-color:#FFFFFF"/>
			<stop  offset="1" style="stop-color:#FFFFFF;stop-opacity:0"/>
		</linearGradient>
		<path style="opacity:0.5;fill:url(#SVGID_00000152943004620700771160000000671979993392232631_);" d="M574.7,239.36
			c-37.8-60.23-75.6-120.46-113.43-180.67c-10.47-16.66-25.08-24.82-44.68-24.94c-16.81-0.1-33.63-0.13-50.44-0.13l-40.94,0.02
			c-8.47,0-16.93-0.01-25.42-0.03c0.11,17.49,0.11,35.15,0,52.64c6.24-0.02,12.49-0.02,18.73-0.02l32.64,0.02
			c12.59,0,27.52-0.02,42.79-0.17l0.5,0c15.21,0,26.65,6.47,34.98,19.77c28.31,45.22,56.67,90.41,85.03,135.6
			c10.09,16.07,20.16,32.16,30.24,48.24C551.49,271.03,561.49,254.26,574.7,239.36z"/>
		<path class="st5" d="M486.6,249.34c-1.21,1.84-2.09,3.12-2.92,4.44c-18.6,29.61-37.22,59.22-55.78,88.86
			c-5.44,8.69-13.1,13.03-23.42,13.01c-40.81-0.07-81.61-0.05-122.42-0.01c-10.52,0.01-18.27-4.53-23.48-13.6
			c-4.46-7.77-8.94-15.52-13.4-23.29c-15.99-27.8-31.97-55.6-47.95-83.41c-1.07-1.87-1.56-3.69-4.68-1.85
			c-19.27,11.39-38.7,22.54-58.12,33.68c-2.12,1.21-2.45,2.22-1.21,4.37c24.71,42.78,49.04,85.79,74.14,128.34
			c11.24,19.06,29.12,29.06,51.16,29.25c56.28,0.48,112.58,0.4,168.86,0.03c20.33-0.13,37.42-8.75,48.67-25.74
			c18.11-27.34,35.12-55.41,52.63-83.14c0.89-1.41,0.94-2.44,0.02-3.88C514.78,294.27,500.9,272.11,486.6,249.34z M790.93,26.97
			c0.01-2.88-0.55-3.97-3.75-3.96c-41.66,0.11-83.33-0.16-124.99,0.18c-21.35,0.18-38.89,9.14-50.56,27.16
			c-20.4,31.53-40.08,63.54-60.12,95.31c-1.1,1.75-1.09,2.98,0.03,4.65c2.72,4.08,5.26,8.29,7.87,12.46
			c11.21,17.85,22.41,35.7,34.01,54.19c1.13-1.75,1.91-2.93,2.66-4.13c21.52-34.26,43.07-68.49,64.52-102.79
			c5.63-9,13.46-13.35,24.14-13.31c34,0.14,67.99,0.01,101.99,0.11c3.01,0.01,4.26-0.42,4.23-3.9
			C790.79,70.95,790.82,48.96,790.93,26.97z"/>
		
			<linearGradient id="SVGID_00000165956203810478090550000002680485206652931485_" gradientUnits="userSpaceOnUse" x1="199.2305" y1="452.7981" x2="300.3448" y2="342.4916">
			<stop  offset="0" style="stop-color:#FFFFFF"/>
			<stop  offset="1" style="stop-color:#FFFFFF;stop-opacity:0"/>
		</linearGradient>
		<path style="opacity:0.5;fill:url(#SVGID_00000165956203810478090550000002680485206652931485_);" d="M340.9,418.88
			c-28.92,0-55.83-0.11-82.27-0.33c-18.65-0.16-32.83-8.25-42.15-24.05c-16.88-28.62-33.71-57.96-49.99-86.32
			c-6.79-11.84-13.59-23.68-20.4-35.51c14.39-8.25,29.99-17.23,45.34-26.24l58,100.87c7.1,12.37,18.38,18.9,32.61,18.9
			c21.11-0.02,42.17-0.04,63.24-0.04c19.73,0,39.46,0.01,59.19,0.05c13.87,0,25.04-6.21,32.4-17.97
			c14.39-22.98,28.81-45.94,43.24-68.9l6.43-10.23c10.41,16.59,20.65,32.92,30.92,49.2c-4.74,7.53-9.45,15.08-14.15,22.63
			c-11.65,18.7-23.7,38.03-36.03,56.64c-9.03,13.63-22.84,20.89-39.93,21.01C396.37,418.78,368.1,418.88,340.9,418.88z"/>
		
			<linearGradient id="SVGID_00000037661228227532341490000005984988680615935653_" gradientUnits="userSpaceOnUse" x1="775.5071" y1="-48.0337" x2="681.287" y2="101.3397">
			<stop  offset="0" style="stop-color:#FFFFFF"/>
			<stop  offset="1" style="stop-color:#FFFFFF;stop-opacity:0"/>
		</linearGradient>
		<path style="opacity:0.5;fill:url(#SVGID_00000037661228227532341490000005984988680615935653_);" d="M568.36,157.16l-2.18-3.5
			c-1.17-1.89-2.37-3.81-3.6-5.75c6.05-9.6,12.07-19.22,18.09-28.85c12.96-20.72,26.36-42.14,39.83-62.97
			c9.49-14.67,23.54-22.18,41.77-22.33c19.33-0.16,38.45-0.18,52.94-0.18l47.55,0.03c5.85,0,11.71,0,17.56-0.01
			c-0.06,15.36-0.1,33.75,0.02,52.66c-10.51-0.02-20.98-0.03-31.45-0.03l-17.9,0c-15.4,0-30.81-0.01-46.21-0.07
			c-14.47,0-25.56,6.15-33.14,18.27c-16.11,25.75-32.27,51.47-48.43,77.19l-9.75,15.52L568.36,157.16z"/>
	</g>
	<g>
		<g>
			<path class="st5" d="M64.3,723.08l-19.8-25.66l-19.8,25.66H-0.22l30.98-39.5L2.13,647.07h26.4l16.39,22.03l17.03-22.03h24.91
				l-28.32,35.77l32.04,40.24H64.3z"/>
			<path class="st5" d="M100.39,723.08v-76.01h37.69c11.35,0,19.85,2.17,25.5,6.49c5.64,4.33,8.46,10.9,8.46,19.7
				c0,8.87-2.89,15.47-8.68,19.8c-5.79,4.33-14.64,6.49-26.56,6.49H122.1v23.53H100.39z M136.37,682.84c4.83,0,8.32-0.76,10.49-2.29
				c2.16-1.52,3.25-3.99,3.25-7.4c0-3.26-1.06-5.64-3.19-7.13c-2.13-1.49-5.57-2.24-10.33-2.24H122.1v19.06H136.37z"/>
			<path class="st5" d="M237.71,723.08l-15.22-25.76h-17.46v25.76h-21.08v-76.01h38.86c22.64,0,33.96,8.41,33.96,25.23
				c0,5.04-1.1,9.24-3.3,12.61c-2.2,3.37-5.57,6.09-10.11,8.14l18.63,30.02H237.71z M221.43,681.14c4.83,0,8.34-0.71,10.54-2.13
				c2.2-1.42,3.3-3.72,3.3-6.92c0-3.12-1.05-5.38-3.14-6.76c-2.09-1.39-5.59-2.07-10.49-2.07h-16.61v17.88H221.43z"/>
			<path class="st5" d="M271.67,723.08v-76.01h66.22v17.14h-44.29v11.6h42.05v17.14h-42.05v12.99h46.84l-2.13,17.14H271.67z"/>
			<path class="st5" d="M402.62,669.96c-1.21-2.98-3.05-5.13-5.54-6.44c-2.49-1.31-5.89-1.97-10.22-1.97c-4.9,0-8.61,0.53-11.12,1.6
				c-2.52,1.06-3.78,2.63-3.78,4.68c0,1.92,0.67,3.34,2.02,4.26c1.35,0.92,3.97,1.7,7.88,2.34l16.39,2.66
				c9.86,1.56,16.98,4.21,21.34,7.93c4.37,3.72,6.55,8.92,6.55,15.59c0,8.02-3.23,14.09-9.69,18.21c-6.46,4.12-16,6.17-28.64,6.17
				c-12.63,0-22.27-2.24-28.9-6.71c-6.64-4.47-10.38-11.21-11.23-20.23h22.36c0.71,3.62,2.48,6.28,5.32,7.98
				c2.84,1.7,6.99,2.55,12.45,2.55c5.11,0,9.05-0.64,11.82-1.92c2.77-1.28,4.15-3.09,4.15-5.43c0-1.77-0.76-3.16-2.29-4.15
				c-1.53-0.99-4.17-1.77-7.93-2.34l-13.52-2.02c-10.43-1.56-18.06-4.29-22.89-8.2s-7.24-9.26-7.24-16.08
				c0-7.31,3.34-13.02,10.01-17.14c6.67-4.12,15.9-6.18,27.68-6.18c10.93,0,19.39,1.88,25.39,5.64c6,3.76,9.67,9.44,11.02,17.03
				L402.62,669.96z"/>
			<path class="st5" d="M487.68,669.96c-1.21-2.98-3.05-5.13-5.54-6.44c-2.48-1.31-5.89-1.97-10.22-1.97c-4.9,0-8.61,0.53-11.13,1.6
				c-2.52,1.06-3.78,2.63-3.78,4.68c0,1.92,0.67,3.34,2.02,4.26s3.97,1.7,7.88,2.34l16.39,2.66c9.86,1.56,16.98,4.21,21.34,7.93
				c4.37,3.72,6.55,8.92,6.55,15.59c0,8.02-3.23,14.09-9.69,18.21c-6.46,4.12-16,6.17-28.64,6.17c-12.63,0-22.27-2.24-28.9-6.71
				c-6.64-4.47-10.38-11.21-11.23-20.23h22.36c0.71,3.62,2.48,6.28,5.32,7.98c2.84,1.7,6.99,2.55,12.45,2.55
				c5.11,0,9.05-0.64,11.82-1.92c2.77-1.28,4.15-3.09,4.15-5.43c0-1.77-0.76-3.16-2.29-4.15c-1.53-0.99-4.17-1.77-7.93-2.34
				l-13.52-2.02c-10.43-1.56-18.06-4.29-22.89-8.2s-7.24-9.26-7.24-16.08c0-7.31,3.34-13.02,10.01-17.14
				c6.67-4.12,15.9-6.18,27.68-6.18c10.93,0,19.39,1.88,25.39,5.64c6,3.76,9.67,9.44,11.02,17.03L487.68,669.96z"/>
			<path class="st5" d="M519.4,693.91V675.5h43.75v18.42H519.4z"/>
			<path class="st5" d="M625.43,669.96c-1.21-2.98-3.05-5.13-5.54-6.44c-2.49-1.31-5.89-1.97-10.22-1.97c-4.9,0-8.61,0.53-11.12,1.6
				c-2.52,1.06-3.78,2.63-3.78,4.68c0,1.92,0.67,3.34,2.02,4.26c1.35,0.92,3.97,1.7,7.88,2.34l16.39,2.66
				c9.86,1.56,16.98,4.21,21.34,7.93c4.37,3.72,6.55,8.92,6.55,15.59c0,8.02-3.23,14.09-9.69,18.21c-6.46,4.12-16,6.17-28.64,6.17
				c-12.63,0-22.27-2.24-28.9-6.71c-6.64-4.47-10.38-11.21-11.23-20.23h22.36c0.71,3.62,2.48,6.28,5.32,7.98
				c2.84,1.7,6.99,2.55,12.45,2.55c5.11,0,9.05-0.64,11.82-1.92c2.77-1.28,4.15-3.09,4.15-5.43c0-1.77-0.76-3.16-2.29-4.15
				c-1.53-0.99-4.17-1.77-7.93-2.34l-13.52-2.02c-10.43-1.56-18.06-4.29-22.89-8.2s-7.24-9.26-7.24-16.08
				c0-7.31,3.34-13.02,10.01-17.14c6.67-4.12,15.9-6.18,27.68-6.18c10.93,0,19.39,1.88,25.39,5.64c6,3.76,9.67,9.44,11.02,17.03
				L625.43,669.96z"/>
			<path class="st5" d="M680.15,723.08v-57.7h-28.32v-18.31h78.99v18.31h-28.32v57.7H680.15z"/>
			<path class="st5" d="M824.82,685.07c0,8.09-1.79,15.14-5.38,21.13c-3.58,6-8.8,10.63-15.65,13.89s-15.03,4.9-24.54,4.9
				c-9.16,0-17.11-1.56-23.85-4.68c-6.74-3.12-11.96-7.68-15.65-13.68c-3.69-5.99-5.53-13.18-5.53-21.56
				c0-8.09,1.79-15.13,5.38-21.13c3.58-5.99,8.8-10.63,15.65-13.89c6.85-3.26,15.03-4.9,24.54-4.9c9.16,0,17.1,1.56,23.85,4.69
				c6.74,3.12,11.96,7.68,15.65,13.68C822.98,669.52,824.82,676.7,824.82,685.07z M801.62,685.07c0-6.95-1.92-12.35-5.75-16.18
				c-3.83-3.83-9.26-5.75-16.29-5.75s-12.47,1.92-16.34,5.75c-3.87,3.83-5.8,9.23-5.8,16.18c0,6.96,1.92,12.35,5.75,16.18
				c3.83,3.83,9.26,5.75,16.29,5.75s12.47-1.92,16.34-5.75C799.68,697.42,801.62,692.03,801.62,685.07z"/>
			<path class="st5" d="M891.57,723.08l-15.22-25.76h-17.46v25.76h-21.08v-76.01h38.86c22.64,0,33.96,8.41,33.96,25.23
				c0,5.04-1.1,9.24-3.3,12.61c-2.2,3.37-5.57,6.09-10.11,8.14l18.63,30.02H891.57z M875.28,681.14c4.83,0,8.34-0.71,10.54-2.13
				c2.2-1.42,3.3-3.72,3.3-6.92c0-3.12-1.05-5.38-3.14-6.76c-2.09-1.39-5.59-2.07-10.49-2.07h-16.61v17.88H875.28z"/>
			<path class="st5" d="M925.53,723.08v-76.01h66.22v17.14h-44.29v11.6h42.05v17.14h-42.05v12.99h46.84l-2.13,17.14H925.53z"/>
			<path class="st5" d="M1056.47,669.96c-1.21-2.98-3.05-5.13-5.54-6.44c-2.48-1.31-5.89-1.97-10.22-1.97
				c-4.9,0-8.61,0.53-11.12,1.6c-2.52,1.06-3.78,2.63-3.78,4.68c0,1.92,0.67,3.34,2.02,4.26c1.35,0.92,3.97,1.7,7.88,2.34
				l16.39,2.66c9.86,1.56,16.98,4.21,21.34,7.93c4.37,3.72,6.55,8.92,6.55,15.59c0,8.02-3.23,14.09-9.69,18.21
				c-6.46,4.12-16,6.17-28.64,6.17c-12.63,0-22.27-2.24-28.9-6.71c-6.64-4.47-10.38-11.21-11.23-20.23h22.36
				c0.71,3.62,2.48,6.28,5.32,7.98c2.84,1.7,6.99,2.55,12.45,2.55c5.11,0,9.05-0.64,11.82-1.92c2.77-1.28,4.15-3.09,4.15-5.43
				c0-1.77-0.76-3.16-2.29-4.15c-1.53-0.99-4.17-1.77-7.93-2.34l-13.52-2.02c-10.43-1.56-18.06-4.29-22.89-8.2
				s-7.24-9.26-7.24-16.08c0-7.31,3.34-13.02,10.01-17.14c6.67-4.12,15.9-6.18,27.68-6.18c10.93,0,19.39,1.88,25.39,5.64
				c6,3.76,9.67,9.44,11.02,17.03L1056.47,669.96z"/>
		</g>
		<g>
			<path class="st5" d="M5.79,612.3c-0.95,0-1.42-0.48-1.42-1.42V596.5c0-0.95,0.47-1.42,1.42-1.42h3.13c3.89,0,6.66-0.99,8.32-2.99
				c1.66-1.99,2.49-5.03,2.49-9.11v-58.34c0-0.95,0.47-1.42,1.42-1.42h17.36c0.95,0,1.42,0.48,1.42,1.42v59.05
				c0,9.77-2.28,16.98-6.83,21.63c-4.55,4.65-11.48,6.97-20.78,6.97H5.79z M21.02,508.85c-0.95,0-1.42-0.47-1.42-1.42v-13.94
				c0-0.95,0.47-1.42,1.42-1.42h17.64c0.95,0,1.42,0.48,1.42,1.42v13.94c0,0.95-0.48,1.42-1.42,1.42H21.02z"/>
			<path class="st5" d="M49.76,612.3c-0.95,0-1.42-0.48-1.42-1.42V596.5c0-0.95,0.47-1.42,1.42-1.42h3.13
				c3.89,0,6.66-0.99,8.32-2.99c1.66-1.99,2.49-5.03,2.49-9.11v-58.34c0-0.95,0.47-1.42,1.42-1.42h17.36c0.95,0,1.42,0.48,1.42,1.42
				v59.05c0,9.77-2.28,16.98-6.83,21.63c-4.55,4.65-11.48,6.97-20.78,6.97H49.76z"/>
			<path class="st5" d="M111.94,612.3c-0.95,0-1.42-0.48-1.42-1.42V596.5c0-0.95,0.47-1.42,1.42-1.42h16.36
				c1.99,0,3.77-0.17,5.34-0.5c1.57-0.33,2.87-0.93,3.91-1.78c1.04-0.85,1.85-2.06,2.42-3.63s0.85-3.58,0.85-6.05h-13.66
				c-9.3,0-16.44-2.23-21.42-6.69c-4.98-4.46-7.47-12.09-7.47-22.91c0-6.07,0.88-11.19,2.63-15.37c1.75-4.17,4.08-7.54,6.97-10.1
				c2.89-2.56,6.21-4.41,9.96-5.55c3.75-1.14,7.61-1.71,11.6-1.71c4.17,0,8.16,0.52,11.95,1.57c3.79,1.04,7.11,2.77,9.96,5.19
				c2.85,2.42,5.1,5.69,6.76,9.82c1.66,4.13,2.49,9.23,2.49,15.3v13.23h9.68c3.79,0,5.69,2.85,5.69,8.54c0,3.61-0.45,5.95-1.35,7.04
				c-0.9,1.09-2.35,1.64-4.34,1.64h-9.68v2.7c0,8.92-2.26,15.56-6.76,19.92c-4.51,4.36-11.55,6.55-21.13,6.55H111.94z
				 M129.59,538.02c-3.8,0-6.71,1.33-8.75,3.99c-2.04,2.66-3.06,6.26-3.06,10.81c0,5.22,1.11,8.71,3.35,10.46
				c2.23,1.76,5.14,2.63,8.75,2.63h10.96v-13.8C140.83,542.71,137.08,538.02,129.59,538.02z"/>
			<path class="st5" d="M170.29,583.13c-1.9,0-3.25-0.54-4.06-1.64c-0.8-1.09-1.21-3.2-1.21-6.33c0-3.32,0.38-5.69,1.14-7.11
				c0.76-1.42,2.13-2.13,4.13-2.13h18.36c1.9,0,3.32,0.69,4.27,2.06c0.95,1.38,1.42,3.63,1.42,6.76c0,3.51-0.45,5.79-1.35,6.83
				c-0.9,1.04-2.35,1.57-4.34,1.57H170.29z"/>
			<path class="st5" d="M188.64,583.13c-1.9,0-3.25-0.54-4.06-1.64c-0.8-1.09-1.21-3.2-1.21-6.33c0-3.32,0.38-5.69,1.14-7.11
				c0.76-1.42,2.13-2.13,4.13-2.13H207c1.9,0,3.32,0.69,4.27,2.06c0.95,1.38,1.42,3.63,1.42,6.76c0,3.51-0.45,5.79-1.35,6.83
				c-0.9,1.04-2.35,1.57-4.34,1.57H188.64z"/>
			<path class="st5" d="M207,583.13c-1.9,0-3.25-0.54-4.06-1.64c-0.8-1.09-1.21-3.2-1.21-6.33c0-3.32,0.38-5.69,1.14-7.11
				c0.76-1.42,2.13-2.13,4.13-2.13h18.36c1.9,0,3.32,0.69,4.27,2.06s1.42,3.63,1.42,6.76c0,3.51-0.45,5.79-1.35,6.83
				c-0.9,1.04-2.35,1.57-4.34,1.57H207z"/>
			<path class="st5" d="M225.36,583.13c-1.9,0-3.25-0.54-4.06-1.64c-0.8-1.09-1.21-3.2-1.21-6.33c0-3.32,0.38-5.69,1.14-7.11
				c0.76-1.42,2.13-2.13,4.13-2.13h18.36c1.9,0,3.32,0.69,4.27,2.06c0.95,1.38,1.42,3.63,1.42,6.76c0,3.51-0.45,5.79-1.35,6.83
				c-0.9,1.04-2.35,1.57-4.34,1.57H225.36z"/>
			<path class="st5" d="M243.71,583.13c-1.9,0-3.25-0.54-4.06-1.64c-0.8-1.09-1.21-3.2-1.21-6.33c0-3.32,0.38-5.69,1.14-7.11
				c0.76-1.42,2.13-2.13,4.13-2.13h18.36c1.9,0,3.32,0.69,4.27,2.06s1.42,3.63,1.42,6.76c0,3.51-0.45,5.79-1.35,6.83
				c-0.9,1.04-2.35,1.57-4.34,1.57H243.71z"/>
			<path class="st5" d="M278.15,524.64c0-0.95,0.47-1.42,1.42-1.42h17.22c0.95,0,1.42,0.48,1.42,1.42v33.58
				c0.19,2.37,1.21,4.25,3.06,5.62c1.85,1.38,4.43,2.06,7.75,2.06h3.27c1.9,0,3.32,0.66,4.27,1.99c0.95,1.33,1.42,3.51,1.42,6.55
				c0,5.79-1.9,8.68-5.69,8.68c-3.61,0-6.74-0.43-9.39-1.28c-2.66-0.85-4.89-2.8-6.69-5.83c-1.52,3.04-3.77,4.98-6.76,5.83
				c-2.99,0.85-7.09,1.28-12.31,1.28H262.5c-1.9,0-3.32-0.59-4.27-1.78c-0.95-1.18-1.42-3.39-1.42-6.62c0-3.22,0.45-5.5,1.35-6.83
				c0.9-1.33,2.35-1.99,4.34-1.99h8.82c3.04,0,4.93-0.88,5.69-2.63c0.76-1.75,1.14-4.77,1.14-9.04V524.64z M269.9,508.85
				c-0.95,0-1.42-0.47-1.42-1.42v-13.94c0-0.95,0.47-1.42,1.42-1.42h14.23c0.95,0,1.42,0.48,1.42,1.42v13.94
				c0,0.95-0.48,1.42-1.42,1.42H269.9z M291.81,508.85c-0.95,0-1.42-0.47-1.42-1.42v-13.94c0-0.95,0.47-1.42,1.42-1.42h14.37
				c0.95,0,1.42,0.48,1.42,1.42v13.94c0,0.95-0.48,1.42-1.42,1.42H291.81z"/>
			<path class="st5" d="M312.3,583.13c-1.9,0-3.25-0.54-4.06-1.64c-0.8-1.09-1.21-3.2-1.21-6.33c0-3.32,0.38-5.69,1.14-7.11
				c0.76-1.42,2.13-2.13,4.13-2.13h18.36c1.9,0,3.32,0.69,4.27,2.06c0.95,1.38,1.42,3.63,1.42,6.76c0,3.51-0.45,5.79-1.35,6.83
				c-0.9,1.04-2.35,1.57-4.34,1.57H312.3z"/>
			<path class="st5" d="M379.47,583.13c-3.7,0-6.74-0.69-9.11-2.06c-2.37-1.37-4.18-3.2-5.41-5.48c-1.33,3.04-3.32,5.05-5.98,6.05
				c-2.66,1-6.4,1.49-11.24,1.49h-17.08c-1.9,0-3.32-0.54-4.27-1.64c-0.95-1.09-1.42-3.2-1.42-6.33c0-3.32,0.45-5.69,1.35-7.11
				c0.9-1.42,2.35-2.13,4.34-2.13h9.53c2.75,0,4.5-0.69,5.27-2.06c0.76-1.37,1.14-3.91,1.14-7.61v-21.35c0-0.95,0.47-1.42,1.42-1.42
				h17.36c0.95,0,1.42,0.48,1.42,1.42v23.34c0,3.04,0.95,5.08,2.85,6.12c1.9,1.04,3.99,1.57,6.26,1.57c1.8,0,3.25-0.19,4.34-0.57
				c1.09-0.38,1.87-0.95,2.35-1.71c0.47-0.76,0.78-1.78,0.92-3.06c0.14-1.28,0.21-2.87,0.21-4.77v-20.92c0-0.95,0.47-1.42,1.42-1.42
				h17.36c0.95,0,1.42,0.48,1.42,1.42v23.2c0,3.23,0.97,5.34,2.92,6.33c1.94,1,4.15,1.49,6.62,1.49c1.8,0,3.18-0.19,4.13-0.57
				c0.95-0.38,1.66-0.97,2.13-1.78c0.47-0.8,0.76-1.85,0.85-3.13c0.09-1.28,0.14-2.87,0.14-4.77v-31.02c0-0.95,0.47-1.42,1.42-1.42
				h17.36c0.95,0,1.42,0.48,1.42,1.42v40.55c0,6.17-1.28,10.7-3.84,13.59c-2.56,2.9-6.83,4.34-12.81,4.34h-7.83
				c-3.7,0-6.71-0.69-9.04-2.06c-2.33-1.37-4.1-3.2-5.34-5.48c-1.33,2.94-3.34,4.93-6.05,5.98c-2.7,1.04-6.38,1.57-11.03,1.57
				H379.47z"/>
			<path class="st5" d="M559.9,558.22c0,3.04,0.95,5.08,2.85,6.12c1.9,1.04,3.99,1.57,6.26,1.57c1.8,0,3.25-0.19,4.34-0.57
				c1.09-0.38,1.87-0.95,2.35-1.71c0.47-0.76,0.78-1.78,0.93-3.06c0.14-1.28,0.21-2.87,0.21-4.77v-20.92c0-0.95,0.47-1.42,1.42-1.42
				h17.36c0.95,0,1.42,0.48,1.42,1.42v23.2c0,3.23,0.97,5.34,2.92,6.33c1.94,1,4.15,1.49,6.62,1.49c1.8,0,3.18-0.19,4.13-0.57
				c0.95-0.38,1.66-0.97,2.13-1.78c0.47-0.8,0.76-1.85,0.85-3.13c0.09-1.28,0.14-2.87,0.14-4.77v-31.02c0-0.95,0.47-1.42,1.42-1.42
				h17.36c0.95,0,1.42,0.48,1.42,1.42v40.55c0,6.17-1.28,10.7-3.84,13.59c-2.56,2.9-6.83,4.34-12.81,4.34h-7.83
				c-3.7,0-6.71-0.69-9.04-2.06c-2.33-1.37-4.1-3.2-5.34-5.48c-1.33,2.94-3.34,4.93-6.05,5.98c-2.7,1.04-6.38,1.57-11.03,1.57h-5.55
				c-3.04,0-5.6-0.43-7.68-1.28c-2.09-0.85-3.79-2.09-5.12-3.7V580c0,5.98-0.93,11.08-2.78,15.3c-1.85,4.22-4.39,7.68-7.61,10.39
				c-3.23,2.7-7.04,4.7-11.45,5.98c-4.41,1.28-9.13,1.92-14.16,1.92c-4.93,0-9.61-0.64-14.02-1.92c-4.41-1.28-8.28-3.27-11.6-5.98
				c-3.32-2.7-5.95-6.21-7.9-10.53c-1.95-4.32-2.92-9.46-2.92-15.44c0-4.74,0.69-9.63,2.06-14.66c1.38-5.03,3.3-9.53,5.76-13.52
				c0.38-0.57,1.09-0.71,2.13-0.43l15.37,4.98c0.47,0.19,0.73,0.45,0.78,0.78c0.05,0.33-0.03,0.69-0.21,1.07
				c-1.33,2.66-2.56,5.65-3.7,8.96c-1.14,3.32-1.71,7.07-1.71,11.24c0,3.32,0.47,6.12,1.42,8.39c0.95,2.28,2.21,4.13,3.77,5.55
				c1.57,1.42,3.32,2.44,5.27,3.06c1.94,0.62,3.91,0.92,5.91,0.92c4.84,0,8.63-1.35,11.38-4.05c2.75-2.7,4.13-7,4.13-12.88v-44.26
				c0-0.95,0.47-1.42,1.42-1.42h17.36c0.95,0,1.42,0.48,1.42,1.42V558.22z"/>
			<path class="st5" d="M657.8,524.64c0-0.95,0.47-1.42,1.42-1.42h17.36c0.95,0,1.42,0.48,1.42,1.42v33.58
				c0.19,2.37,1.21,4.25,3.06,5.62c1.85,1.38,4.43,2.06,7.76,2.06h3.13c1.9,0,3.32,0.66,4.27,1.99c0.95,1.33,1.42,3.51,1.42,6.55
				c0,5.79-1.9,8.68-5.69,8.68c-3.13,0-5.83-0.31-8.11-0.93c-2.28-0.62-4.22-1.92-5.83-3.91v2.28c0,10.81-2.09,18.81-6.26,23.98
				c-4.18,5.17-11.29,7.76-21.35,7.76h-6.55c-0.95,0-1.42-0.48-1.42-1.42V596.5c0-0.95,0.47-1.42,1.42-1.42h3.13
				c2.56,0,4.55-0.4,5.98-1.21c1.42-0.81,2.49-1.99,3.2-3.56c0.71-1.56,1.16-3.49,1.35-5.76c0.19-2.28,0.28-4.88,0.28-7.83V524.64z"
				/>
			<path class="st5" d="M691.95,583.13c-1.9,0-3.25-0.54-4.06-1.64c-0.8-1.09-1.21-3.2-1.21-6.33c0-3.32,0.38-5.69,1.14-7.11
				c0.76-1.42,2.13-2.13,4.13-2.13h18.36c1.9,0,3.32,0.69,4.27,2.06s1.42,3.63,1.42,6.76c0,3.51-0.45,5.79-1.35,6.83
				c-0.9,1.04-2.35,1.57-4.34,1.57H691.95z"/>
			<path class="st5" d="M710.31,583.13c-1.9,0-3.25-0.54-4.06-1.64c-0.8-1.09-1.21-3.2-1.21-6.33c0-3.32,0.38-5.69,1.14-7.11
				c0.76-1.42,2.13-2.13,4.13-2.13h18.36c1.9,0,3.32,0.69,4.27,2.06c0.95,1.38,1.42,3.63,1.42,6.76c0,3.51-0.45,5.79-1.35,6.83
				c-0.9,1.04-2.35,1.57-4.34,1.57H710.31z"/>
			<path class="st5" d="M728.66,583.13c-1.9,0-3.25-0.54-4.06-1.64c-0.8-1.09-1.21-3.2-1.21-6.33c0-3.32,0.38-5.69,1.14-7.11
				c0.76-1.42,2.13-2.13,4.13-2.13h18.36c1.9,0,3.32,0.69,4.27,2.06c0.95,1.38,1.42,3.63,1.42,6.76c0,3.51-0.45,5.79-1.35,6.83
				c-0.9,1.04-2.35,1.57-4.34,1.57H728.66z"/>
			<path class="st5" d="M747.02,583.13c-1.9,0-3.25-0.54-4.06-1.64c-0.8-1.09-1.21-3.2-1.21-6.33c0-3.32,0.38-5.69,1.14-7.11
				c0.76-1.42,2.13-2.13,4.13-2.13h18.36c1.9,0,3.32,0.69,4.27,2.06c0.95,1.38,1.42,3.63,1.42,6.76c0,3.51-0.45,5.79-1.35,6.83
				c-0.9,1.04-2.35,1.57-4.34,1.57H747.02z"/>
			<path class="st5" d="M765.38,583.13c-1.9,0-3.25-0.54-4.06-1.64c-0.8-1.09-1.21-3.2-1.21-6.33c0-3.32,0.38-5.69,1.14-7.11
				c0.76-1.42,2.13-2.13,4.13-2.13h18.36c1.9,0,3.32,0.69,4.27,2.06c0.95,1.38,1.42,3.63,1.42,6.76c0,3.51-0.45,5.79-1.35,6.83
				c-0.9,1.04-2.35,1.57-4.34,1.57H765.38z"/>
			<path class="st5" d="M814.18,576.01c-1.61,2.94-3.84,4.86-6.69,5.76c-2.85,0.9-6.83,1.35-11.95,1.35h-11.38
				c-1.9,0-3.32-0.31-4.27-0.93c-0.95-0.62-1.42-1.97-1.42-4.05c0-1.23,0.1-2.56,0.29-3.99s0.52-2.75,1-3.98
				c0.48-1.23,1.09-2.25,1.85-3.06c0.76-0.8,1.71-1.21,2.85-1.21h4.7c2.94,0,4.81-0.83,5.62-2.49c0.8-1.66,1.21-4.63,1.21-8.89
				v-29.88c0-0.76,0.69-1.19,2.06-1.28c1.37-0.09,2.58-0.14,3.63-0.14h13.09c0.95,0,1.42,0.48,1.42,1.42v33.58
				c0.19,2.37,1.21,4.25,3.06,5.62c1.85,1.38,4.43,2.06,7.75,2.06h3.27c1.9,0,3.32,0.66,4.27,1.99c0.95,1.33,1.42,3.51,1.42,6.55
				c0,5.79-1.9,8.68-5.69,8.68c-3.61,0-6.74-0.43-9.39-1.28C818.22,580.99,815.99,579.05,814.18,576.01z M797.11,612.16
				c-0.95,0-1.42-0.48-1.42-1.42v-13.94c0-0.95,0.47-1.42,1.42-1.42h17.64c0.95,0,1.42,0.47,1.42,1.42v13.94
				c0,0.95-0.48,1.42-1.42,1.42H797.11z"/>
			<path class="st5" d="M829.69,583.13c-1.9,0-3.25-0.54-4.06-1.64c-0.8-1.09-1.21-3.2-1.21-6.33c0-3.32,0.38-5.69,1.14-7.11
				c0.76-1.42,2.13-2.13,4.13-2.13h18.36c1.9,0,3.32,0.69,4.27,2.06s1.42,3.63,1.42,6.76c0,3.51-0.45,5.79-1.35,6.83
				c-0.9,1.04-2.35,1.57-4.34,1.57H829.69z"/>
			<path class="st5" d="M933.86,583.13c-3.7,0-6.71-0.69-9.04-2.06c-2.33-1.37-4.1-3.2-5.34-5.48c-1.33,2.94-3.34,4.93-6.05,5.98
				c-2.7,1.04-6.38,1.57-11.03,1.57h-5.55c-3.7,0-6.74-0.69-9.11-2.06c-2.37-1.37-4.18-3.2-5.41-5.48
				c-1.33,3.04-3.32,5.05-5.98,6.05c-2.66,1-6.4,1.49-11.24,1.49h-17.08c-1.9,0-3.32-0.54-4.27-1.64c-0.95-1.09-1.42-3.2-1.42-6.33
				c0-3.32,0.45-5.69,1.35-7.11c0.9-1.42,2.35-2.13,4.34-2.13h9.53c2.75,0,4.5-0.69,5.27-2.06c0.76-1.37,1.14-3.91,1.14-7.61v-21.35
				c0-0.95,0.47-1.42,1.42-1.42h17.36c0.95,0,1.42,0.48,1.42,1.42v23.34c0,3.04,0.95,5.08,2.85,6.12c1.9,1.04,3.99,1.57,6.26,1.57
				c1.8,0,3.25-0.19,4.34-0.57c1.09-0.38,1.87-0.95,2.35-1.71c0.47-0.76,0.78-1.78,0.92-3.06c0.14-1.28,0.21-2.87,0.21-4.77v-20.92
				c0-0.95,0.47-1.42,1.42-1.42h17.36c0.95,0,1.42,0.48,1.42,1.42v23.2c0,3.23,0.97,5.34,2.92,6.33c1.94,1,4.15,1.49,6.62,1.49
				c1.8,0,3.18-0.19,4.13-0.57c0.95-0.38,1.66-0.97,2.13-1.78c0.47-0.8,0.76-1.85,0.85-3.13c0.09-1.28,0.14-2.87,0.14-4.77v-31.02
				c0-0.95,0.47-1.42,1.42-1.42h17.36c0.95,0,1.42,0.48,1.42,1.42v33.58c0.19,2.37,1.21,4.25,3.06,5.62
				c1.85,1.38,4.43,2.06,7.75,2.06h3.27c1.9,0,3.32,0.66,4.27,1.99c0.95,1.33,1.42,3.51,1.42,6.55c0,5.79-1.9,8.68-5.69,8.68
				c-3.61,0-6.74-0.43-9.39-1.28c-2.66-0.85-4.89-2.8-6.69-5.83c-1.33,2.75-3.27,4.62-5.83,5.62c-2.56,1-5.5,1.49-8.82,1.49H933.86z
				"/>
			<path class="st5" d="M1005.57,522.08c4.93,0.19,9.27,0.71,13.02,1.57c3.75,0.85,6.9,2.35,9.46,4.48c2.56,2.13,4.48,5,5.76,8.61
				c1.28,3.61,1.92,8.16,1.92,13.66v8.39c0,4.65-0.45,8.54-1.35,11.67c-0.9,3.13-2.23,5.62-3.98,7.47
				c-1.76,1.85-3.98,3.18-6.69,3.99c-2.7,0.81-5.86,1.21-9.46,1.21h-41.84c-1.9,0-3.32-0.66-4.27-1.99
				c-0.95-1.33-1.42-3.7-1.42-7.11c0-3.22,0.45-5.38,1.35-6.47c0.9-1.09,2.35-1.64,4.34-1.64h31.88c2.28,0,4.13-0.14,5.55-0.43
				c1.42-0.29,2.51-0.78,3.27-1.49c0.76-0.71,1.26-1.68,1.49-2.92c0.24-1.23,0.36-2.8,0.36-4.7v-6.55c0-3.79-1.02-6.55-3.06-8.25
				c-2.04-1.71-5.29-2.56-9.75-2.56h-21.34c-0.95,0-1.42-0.47-1.42-1.42v-11.67c0-0.66,0.38-1.4,1.14-2.21
				c0.76-0.8,1.42-1.54,1.99-2.21l30.17-35.72c0.57-0.66,1.18-0.8,1.85-0.43l11.81,9.96c0.76,0.57,0.95,1.23,0.57,1.99
				L1005.57,522.08z"/>
			<path class="st5" d="M1071.46,581.7c0,0.95-0.48,1.42-1.42,1.42h-17.22c-0.95,0-1.42-0.47-1.42-1.42v-93.92
				c0-0.95,0.47-1.42,1.42-1.42h17.22c0.95,0,1.42,0.48,1.42,1.42V581.7z"/>
		</g>
	</g>
</g>
</svg>
